<?xml version="1.0" encoding="UTF-8"?>
<svg version="1.1" viewBox="0 0 2000 1247" xmlns="http://www.w3.org/2000/svg">
<g transform="translate(-1.2121 .50486)">
<svg width="2e3" height="1247" data-background-color="#ffffff" viewBox="0 0 396 247" xmlns="http://www.w3.org/2000/svg" xmlns:xlink="http://www.w3.org/1999/xlink">
<g transform="translate(.24 -.1)">
<svg width="395.52" height="247.2" viewBox="0 0 395.52 247.2">
<svg/>
<svg width="395.52" height="247.2" viewBox="0 0 395.52 247.2">
<g transform="translate(75.544 73.696)">
<svg width="244.43" height="99.808" viewBox="0 0 244.43135999999998 99.80784115292234">
<svg width="244.43" height="99.808" viewBox="0 0 244.43135999999998 99.80784115292234">
<svg width="244.43" height="99.808" viewBox="0 0 244.43135999999998 99.80784115292234">
<svg width="244.43" height="99.808" viewBox="0 0 244.43135999999998 99.80784115292234">
<svg width="244.43" height="99.808" viewBox="0 0 244.43135999999998 99.80784115292234">
<svg width="244.43" height="99.808" viewBox="0 0 244.43135999999998 99.80784115292234">
<g>
<svg width="244.43" height="99.808" data-palette-color="#0fceb7" viewBox="2.299999952316284 -24.950000762939453 62.45000076293945 25.5">
<path class="wordmark-text-0" d="m14.9-24.95q2.8 0 5.4 1.2 1.45 0.65 2.33 2 0.87 1.35 0.87 3.15t-1.6 2.45q-0.65 0.25-1.37 0.25-0.73 0-1.48-0.5 0.2-1.05 0.2-2.48 0-1.42-0.9-2.72-1.3-1.95-3.7-1.95-6.95 0-6.95 11.45 0 5.6 1.63 8.42 1.62 2.83 5.27 2.83 4.65 0 7.45-4.5 1.1 0.35 1.1 1.07 0 0.73-0.92 1.8-0.93 1.08-3.2 2.05-2.28 0.98-5.23 0.98-5.15 0-8.32-3.5-3.18-3.5-3.18-9.25t3.43-9.25q3.42-3.5 9.17-3.5zm10.6 1.75v-1.2h10.3v1.15l-3.3 0.4 7.1 17.5 4.4-11.65-2.45-5.85-2.05-0.25v-1.3h10.1v1.15l-3.35 0.4 7.15 17.5 6.2-16.8-3.25-0.95v-1.3h8.4v1.3l-3.05 0.95-8.5 22.15h-2l-6.1-14.45-5.7 14.45h-2l-9.65-22.85-2.25-0.35z" fill="#0fceb7" data-fill-palette-color="primary"/>
</svg>
</g>
</svg>
</svg>
</svg>
</svg>
</svg>
</svg>
</g>
<path d="m169.31 67.696v-51.543h214.89v214.89h-214.89v-51.543h9.001v42.542h196.89v-196.89h-196.89v42.542z" fill="#0fceb7" stroke="transparent" data-fill-palette-color="primary"/>
</svg>
</svg>
<rect width="395.52" height="247.2" fill="none" visibility="hidden"/>
</g>
</svg>
</g>
</svg>
